<?xml version="1.0" encoding="UTF-8"?><svg width="100%" height="100%" stroke-width="1.5" viewBox="0 0 24 24" fill="none" xmlns="http://www.w3.org/2000/svg" color="#000000"><path d="M3 7.4V3.6a.6.6 0 01.6-.6h5.8a.6.6 0 01.6.6v3.8a.6.6 0 01-.6.6H3.6a.6.6 0 01-.6-.6zM14 20.4v-3.8a.6.6 0 01.6-.6h5.8a.6.6 0 01.6.6v3.8a.6.6 0 01-.6.6h-5.8a.6.6 0 01-.6-.6zM14 12.4V3.6a.6.6 0 01.6-.6h5.8a.6.6 0 01.6.6v8.8a.6.6 0 01-.6.6h-5.8a.6.6 0 01-.6-.6zM3 20.4v-8.8a.6.6 0 01.6-.6h5.8a.6.6 0 01.6.6v8.8a.6.6 0 01-.6.6H3.6a.6.6 0 01-.6-.6z" stroke="#768390" stroke-width="1.5"></path></svg>